<svg width="1024" height="1024" viewBox="0 0 1024 1024" fill="none" xmlns="http://www.w3.org/2000/svg">
<rect width="1024" height="1024" rx="512" fill="white"/>
<path d="M841.91 662.547C786.166 777.013 704.391 867.331 597.707 935.258C573.422 950.721 547.667 963.586 521.585 975.778C515.221 978.753 509.519 978.725 503.023 975.788C420.717 938.572 348.912 886.736 287.755 820.446C207.853 733.838 157.21 631.91 131.601 517.33C120.597 468.096 115.848 418.076 113.482 367.698C111.565 326.881 112.1 286.091 112 245.285C111.956 227.27 117.042 220.138 134.329 214.742C205.74 192.456 277.784 172.319 349.813 152.159C398.612 138.5 447.6 125.52 496.449 112.041C506.914 109.153 516.934 109.454 527.459 112.163C626.834 137.739 725.242 166.761 823.911 194.852C846.198 201.197 868.357 207.994 890.571 214.596C905.945 219.165 911.7 226.807 911.725 242.968C911.777 275.751 912.369 308.548 911.637 341.314C909.816 422.82 900.061 503.2 874.643 581.086C865.622 608.726 854.845 635.708 841.91 662.547ZM547.44 129.509C544.448 128.743 541.389 128.176 538.476 127.178C521.663 121.421 505.401 121 487.761 126.17C430.252 143.025 372.184 157.965 314.537 174.362C255.982 191.018 197.67 208.526 139.255 225.671C131.005 228.092 124.321 232.049 124.255 241.961C123.745 318.271 123.032 394.531 134.951 470.33C148.657 557.492 177.303 639.038 223.504 714.296C292.191 826.183 387.71 907.821 505.791 964.002C510.059 966.033 513.517 966.12 517.938 964.015C570.687 938.896 620.2 908.92 664.705 870.7C724.952 818.96 775.031 759.042 813.723 689.735C866.73 594.785 891.228 491.956 897.444 384.18C899.85 342.483 899.427 300.732 899.517 258.991C899.584 227.978 900.566 230.441 872.485 221.956C765.13 189.517 657.156 159.227 547.44 129.509Z" fill="url(#paint0_linear_3730_40893)"/>
<path d="M853.399 450.016C840.028 552.682 804.655 646.136 744.777 729.664C685.48 812.382 610.331 876.998 518.319 921.473C514.038 923.542 510.396 923.509 506.048 921.371C385.951 862.33 294.983 773.435 233.25 654.913C201.133 593.249 181.365 527.576 171.136 458.801C161.676 395.203 161.775 331.289 162.101 267.287C162.144 258.739 167.533 257.174 173.569 255.371C214.159 243.247 254.665 230.832 295.364 219.089C364.277 199.204 433.231 179.456 502.632 161.308C509.44 159.528 515.707 159.578 522.564 161.376C626.949 188.752 730.538 218.894 833.794 250.21C834.386 250.389 834.954 250.648 835.547 250.824C861.885 258.684 861.878 258.684 861.91 286.393C861.949 320.107 862.574 353.846 859.884 387.488C858.236 408.097 855.71 428.637 853.399 450.016ZM700.609 313.708C682.65 313.704 664.683 314.007 646.735 313.548C639.246 313.356 635.829 316.324 633.244 323.128C594.821 424.256 556.162 525.295 517.472 626.321C516.698 628.341 516.863 631.53 513.498 631.684C511.32 630.809 511.146 628.759 510.566 627.095C493.892 579.219 475.134 532.125 457.051 484.778C436.541 431.072 416.072 377.351 395.629 323.619C393.583 318.24 391.645 313.634 384.373 313.388C349.723 312.218 315.075 311.635 280.438 313.279C268.148 313.862 266.93 315.997 271.755 327.744C290.078 372.352 308.592 416.882 327.119 461.406C370.585 565.866 414.148 670.284 457.467 774.805C459.964 780.829 463.181 783.174 469.725 783.536C499.131 785.162 528.503 783.791 557.891 783.441C563.925 783.369 566.538 780.466 568.637 775.321C608.812 676.867 649.074 578.449 689.409 480.061C710.631 428.293 732.085 376.62 753.297 324.847C757.159 315.42 756.101 313.898 746.127 313.754C731.577 313.544 717.021 313.703 700.609 313.708Z" fill="#9A5A5B"/>
<path d="M595 409C593.889 420.311 589.464 430.069 585.203 440.462C577.775 458.88 570.72 477.398 563.88 496.044C556.533 516.042 548.947 535.92 541.058 555.706C534.526 572.092 528.043 588.49 521.81 604.996C521.207 606.586 520.604 608.176 519.982 609.815C519.437 611.267 518.892 612.719 518.331 614.216C517.863 615.461 517.396 616.706 516.914 617.989C515.673 621.624 514.724 625.258 513.857 629C512.64 629 511.423 629 510.169 629C509.22 626.163 509.22 626.163 508.253 623.268C500.823 601.323 492.827 579.607 484.696 557.919C484.14 556.435 483.584 554.95 483.011 553.42C477.287 538.157 471.528 522.909 465.671 507.697C464.809 505.453 463.947 503.208 463.059 500.896C461.463 496.753 459.859 492.613 458.246 488.477C457.546 486.662 456.847 484.848 456.126 482.979C455.518 481.417 454.91 479.854 454.283 478.244C453 474.254 453 474.254 453 468.661C536.617 429.965 536.617 429.965 574.138 415.409C575.806 414.761 577.474 414.114 579.193 413.447C580.727 412.861 582.261 412.276 583.841 411.673C585.198 411.155 586.555 410.637 587.952 410.103C591.312 409 591.312 409 595 409Z" fill="#5D0E12"/>
<path d="M540.375 165.86C543.112 166.602 543.112 166.602 545.904 167.358C551.896 168.995 557.876 170.671 563.853 172.36C565.934 172.946 568.015 173.532 570.159 174.136C581.115 177.231 592.06 180.36 603.001 183.509C614.77 186.893 626.558 190.201 638.356 193.483C705.869 212.313 773.302 231.583 840.241 252.366C841.717 252.822 843.193 253.278 844.714 253.747C846.548 254.319 846.548 254.319 848.418 254.902C852.709 256.091 857.032 256.925 861.4 257.78C862.562 366.816 862.562 366.816 856.496 418.864C855.893 424.265 855.414 429.651 855.015 435.07C846.128 552.635 795.015 670.618 720.065 761.018C719.299 761.954 718.532 762.89 717.743 763.854C704.124 780.388 689.383 795.76 674.271 810.924C673.377 811.827 672.483 812.729 671.561 813.659C659.241 826.066 646.365 837.428 632.661 848.296C630.327 850.219 627.997 852.148 625.673 854.084C601.246 874.173 574.852 890.633 547.08 905.696C543.267 907.79 539.496 909.95 535.726 912.122C533.247 913.518 530.767 914.913 528.287 916.307C527.165 916.967 526.043 917.627 524.887 918.307C517.078 922.614 512.885 922.779 504.344 920.718C498.993 918.356 498.993 918.356 493.462 915.371C491.417 914.272 489.372 913.172 487.265 912.038C485.154 910.881 483.042 909.724 480.866 908.531C478.797 907.424 476.728 906.317 474.596 905.176C460.408 897.482 446.953 889.031 433.677 879.864C432.404 878.992 431.132 878.119 429.821 877.221C415.035 866.996 400.936 856.162 387.185 844.582C385.375 843.119 383.565 841.657 381.7 840.15C366.375 827.608 352.283 813.844 338.252 799.899C336.825 798.487 336.825 798.487 335.368 797.048C322.632 784.431 310.896 771.399 299.78 757.304C298.185 755.336 296.59 753.367 294.993 751.4C272.7 723.007 253.32 692.679 236.552 660.742C235.598 658.955 235.598 658.955 234.625 657.132C191.679 576.398 169.557 486.129 164.025 395.196C163.78 391.606 163.78 391.606 163.531 387.943C161.821 361.16 161.954 334.397 162.049 307.57C162.058 302.9 162.067 298.23 162.074 293.559C162.094 282.252 162.125 270.944 162.165 259.637C169.253 257.214 176.348 254.809 183.447 252.417C186.98 251.223 190.509 250.017 194.037 248.811C213.255 242.311 232.718 236.844 252.27 231.446C264.068 228.187 275.833 224.824 287.591 221.424C289.504 220.871 291.418 220.318 293.389 219.749C297.307 218.616 301.224 217.483 305.141 216.35C422.243 182.478 422.243 182.478 463.057 172.112C474.324 169.248 485.416 166.04 496.477 162.451C511.829 159.3 525.49 161.667 540.375 165.86ZM483.27 179.512C481.277 180.062 479.284 180.613 477.23 181.18C470.881 182.94 464.541 184.729 458.201 186.519C454.023 187.679 449.845 188.837 445.666 189.993C425.791 195.514 405.981 201.215 386.239 207.194C368.458 212.558 350.563 217.511 332.677 222.513C295.459 232.932 258.344 243.658 221.326 254.762C218.27 255.677 218.27 255.677 215.154 256.611C209.434 258.325 203.717 260.046 198 261.77C196.298 262.281 194.596 262.792 192.843 263.319C191.296 263.788 189.749 264.256 188.155 264.739C186.809 265.146 185.463 265.553 184.076 265.972C180.624 267.022 180.624 267.022 177.042 268.922C176.911 284.552 176.813 300.182 176.753 315.812C176.725 323.076 176.686 330.34 176.621 337.603C176.313 373.339 177.415 408.03 182.621 443.477C182.988 446.16 183.352 448.844 183.712 451.528C191.751 508.954 207.034 565.146 230.973 618.032C238.341 618.032 240.072 615.585 245.618 610.836C248.368 608.531 248.368 608.531 251.175 606.179C252.138 605.372 253.1 604.565 254.092 603.733C278.057 583.894 303.662 565.026 330.168 548.739C335.218 545.545 340.109 542.187 344.994 538.748C346.636 537.594 348.278 536.44 349.97 535.251C351.204 534.38 352.439 533.509 353.711 532.611C354.647 534.845 355.583 537.079 356.548 539.381C360.096 547.851 363.646 556.32 367.195 564.789C368.717 568.42 370.239 572.052 371.761 575.684C381.287 598.419 390.837 621.144 400.421 643.855C404.656 653.891 408.882 663.931 413.104 673.973C413.589 675.126 414.074 676.28 414.573 677.468C425.695 703.932 436.692 730.447 447.674 756.968C448.338 758.568 449.001 760.169 449.684 761.818C450.937 764.84 452.189 767.863 453.439 770.886C456.406 778.098 456.406 778.098 459.712 785.159C494.692 785.159 529.673 785.159 565.713 785.159C573.094 769.033 573.094 769.033 579.966 752.742C580.844 750.567 581.723 748.392 582.628 746.152C583.088 745.007 583.549 743.862 584.023 742.683C586.63 736.205 589.254 729.733 591.879 723.262C592.45 721.855 593.02 720.448 593.608 718.999C601.262 700.16 609.067 681.383 616.854 662.599C626.958 638.216 637.037 613.823 646.957 589.365C656.808 565.079 666.747 540.831 676.717 516.594C683.58 499.907 690.432 483.215 697.263 466.515C698.003 464.707 698.742 462.899 699.505 461.036C703.853 450.407 703.853 450.407 708.198 439.777C708.868 438.138 709.537 436.499 710.227 434.81C710.886 433.196 711.544 431.582 712.223 429.919C713.527 426.739 714.843 423.564 716.17 420.394C719.497 412.43 722.622 404.46 725.458 396.308C733.737 373.26 733.737 373.26 741.602 367.603C747.352 365.821 752.412 365.221 758.421 364.904C762.691 364.388 766.96 363.863 771.228 363.33C773.473 363.1 775.718 362.87 778.03 362.633C789.479 361.247 800.702 358.868 811.983 356.511C815.674 355.745 819.369 355.005 823.067 354.275C834.922 352.015 834.922 352.015 846.523 348.771C846.523 322.421 846.523 296.071 846.523 268.922C793.914 251.411 740.553 236.203 687.273 220.877C676.617 217.81 665.97 214.716 655.326 211.61C621.424 201.728 587.473 192.195 553.291 183.321C548.961 182.145 544.652 180.893 540.36 179.583C538.121 178.901 535.882 178.22 533.576 177.517C530.582 176.572 530.582 176.572 527.528 175.609C511.786 172.209 498.551 175.154 483.27 179.512Z" fill="#570D11"/>
<defs>
<linearGradient id="paint0_linear_3730_40893" x1="512" y1="110" x2="512" y2="978" gradientUnits="userSpaceOnUse">
<stop stop-color="#742F31"/>
<stop offset="1" stop-color="#570D11"/>
</linearGradient>
</defs>
</svg>
