<svg width="1024" height="1024" viewBox="0 0 1024 1024" fill="none" xmlns="http://www.w3.org/2000/svg">
<path d="M687.739 456.688C657.725 518.368 613.695 567.036 556.255 603.639C543.18 611.971 529.313 618.903 515.27 625.473C511.843 627.076 508.773 627.061 505.276 625.478C460.961 605.425 422.3 577.493 389.372 541.772C346.351 495.104 319.084 440.179 305.295 378.438C299.371 351.909 296.814 324.955 295.54 297.809C294.508 275.814 294.796 253.835 294.742 231.847C294.719 222.139 297.457 218.296 306.765 215.389C345.214 203.38 384.003 192.529 422.785 181.665C449.059 174.306 475.435 167.311 501.736 160.048C507.371 158.492 512.766 158.654 518.433 160.114C571.938 173.895 624.922 189.534 678.047 204.671C690.047 208.09 701.978 211.752 713.938 215.31C722.216 217.772 725.314 221.889 725.328 230.598C725.356 248.263 725.674 265.936 725.28 283.592C724.3 327.511 719.048 370.824 705.362 412.793C700.505 427.687 694.703 442.226 687.739 456.688ZM529.191 169.461C527.58 169.048 525.932 168.742 524.364 168.205C515.312 165.102 506.556 164.876 497.059 167.662C466.095 176.744 434.83 184.794 403.792 193.63C372.265 202.605 340.868 212.039 309.417 221.277C304.975 222.582 301.376 224.714 301.341 230.055C301.066 271.175 300.682 312.268 307.099 353.112C314.479 400.08 329.902 444.021 354.778 484.573C391.76 544.864 443.189 588.854 506.766 619.128C509.064 620.222 510.926 620.269 513.306 619.134C541.707 605.599 568.366 589.447 592.328 568.851C624.766 540.972 651.73 508.685 672.562 471.339C701.102 420.175 714.292 364.765 717.639 306.69C718.934 284.222 718.707 261.724 718.755 239.232C718.791 222.521 719.32 223.848 704.201 219.276C646.399 201.796 588.263 185.474 529.191 169.461Z" fill="url(#paint0_linear_3687_43680)"/>
<path d="M672.215 783.887C665.644 806.729 649.401 818.18 627.61 822.117C610.025 825.294 592.081 822.888 574.303 823.335C571.801 823.398 570.645 822.176 570.719 819.679C570.764 818.183 570.679 816.683 570.678 815.185C570.672 782.388 570.666 749.591 570.668 716.794C570.669 709.783 570.684 709.772 577.461 709.761C590.28 709.741 603.101 709.588 615.917 709.769C626.506 709.919 636.753 712.025 646.272 716.828C662.464 724.998 670.751 738.651 673.375 756.236C674.745 765.41 674.314 774.464 672.215 783.887ZM627.552 798.065C637.688 794.705 643.982 787.756 646.79 777.524C648.313 771.977 648.163 766.347 647.721 760.698C646.754 748.349 638.782 738.243 627.095 734.514C618.027 731.621 608.681 732.347 599.389 732.355C597.335 732.357 596.349 733.424 596.366 735.457C596.367 735.623 596.348 735.79 596.348 735.956C596.346 756.254 596.356 776.552 596.331 796.85C596.328 799.177 596.954 800.741 599.657 800.711C608.77 800.609 617.957 801.395 627.552 798.065Z" fill="#570D11"/>
<path d="M459.844 748C459.858 736.502 459.896 725.505 459.868 714.508C459.861 711.942 460.109 709.707 463.443 709.774C481.748 710.142 500.119 708.448 518.35 710.717C534.812 712.767 546.569 724.259 549.179 739.734C552.385 758.747 546.139 772.403 530.321 780.945C529.312 781.49 528.113 781.783 527.464 783.747C535.518 796.269 543.825 809.184 552.882 823.266C542.386 823.266 533.316 823.355 524.249 823.204C521.937 823.166 521.261 820.768 520.245 819.105C514.078 809.016 507.978 798.885 501.797 788.804C499.916 785.737 489.125 783.792 486.441 785.968C484.91 787.211 485.369 789.024 485.362 790.64C485.32 799.804 485.148 808.974 485.409 818.131C485.53 822.376 483.953 823.681 479.908 823.455C475.091 823.186 470.236 823.195 465.419 823.46C461.274 823.689 459.84 822.076 459.877 817.984C460.008 803.155 459.893 788.324 459.873 773.494C459.862 765.163 459.853 756.831 459.844 748ZM494.593 732.311C493.76 732.308 492.928 732.3 492.095 732.304C485.381 732.333 485.367 732.333 485.35 738.903C485.333 745.732 485.542 752.569 485.271 759.387C485.117 763.242 486.219 764.882 490.281 764.624C496.757 764.212 503.267 764.322 509.745 763.921C517.589 763.436 523.09 757.592 523.63 749.565C524.176 741.475 519.564 735.117 511.972 733.239C506.542 731.897 501.04 732.475 494.593 732.311Z" fill="#570D11"/>
<path d="M196.05 818.207C174.521 828.006 153.141 828.942 132.156 818.34C113.624 808.978 105.644 792.373 103.781 772.5C103.067 764.893 103.621 757.253 105.577 749.713C111.762 725.862 130.834 710.173 155.5 708.571C170.109 707.622 184.079 709.313 196.913 716.883C201.529 719.606 205.559 722.996 208.897 727.882C202.47 732.624 196.256 737.272 189.965 741.813C188.155 743.12 186.958 741.691 185.719 740.487C174.892 729.971 162.086 728.721 148.72 733.829C134.807 739.146 130.028 750.939 129.368 764.865C129.219 768.004 129.288 771.154 129.778 774.323C133.927 801.158 158.293 806.84 178.002 800.367C185.907 797.771 188.471 792.298 185.824 784.324C185.047 781.984 183.249 781.978 181.425 781.967C176.093 781.934 170.752 781.816 165.429 782.053C161.449 782.23 159.509 780.97 159.75 776.693C159.983 772.541 159.893 768.359 159.738 764.198C159.618 760.955 161.03 759.734 164.184 759.749C177.849 759.816 191.516 759.803 205.181 759.76C208.073 759.75 209.415 760.871 209.4 763.901C209.328 777.9 209.348 791.9 209.389 805.899C209.395 808.151 208.326 809.731 206.642 810.937C203.262 813.36 199.81 815.685 196.05 818.207Z" fill="#570D11"/>
<path d="M279.477 801.664C291.819 799.277 296.627 793.855 296.903 781.893C297.232 767.593 297.974 753.304 297.208 738.978C296.756 730.522 297.217 722.019 297.206 713.537C297.203 710.731 298.607 709.728 301.249 709.752C307.243 709.806 313.239 709.837 319.232 709.731C323.239 709.66 323.229 712.29 323.228 715.107C323.219 737.921 323.299 760.735 323.18 783.549C323.154 788.53 322.199 793.473 320.518 798.204C314.449 815.283 301.23 822.934 284.234 825.25C276.141 826.352 268.01 826.384 259.936 824.45C239.737 819.612 227.03 804.447 226.752 783.739C226.444 760.763 226.708 737.779 226.574 714.799C226.553 711.085 227.917 709.714 231.548 709.844C236.37 710.017 241.224 710.151 246.028 709.802C250.738 709.459 252.101 711.421 252.074 715.863C251.956 735.346 252.058 754.83 252.106 774.313C252.113 777.31 252.117 780.316 252.355 783.299C253.234 794.302 260.52 801.28 271.551 801.729C274.042 801.83 276.543 801.707 279.477 801.664Z" fill="#570D11"/>
<path d="M408.442 800.045C396.17 800.02 384.338 800.094 372.507 799.969C369.165 799.934 367.313 801.163 366.247 804.364C364.513 809.573 362.424 814.664 360.497 819.809C359.847 821.545 359.317 823.399 356.949 823.403C349.15 823.414 341.351 823.407 333.275 823.407C333.127 818.841 335.181 815.524 336.522 812.088C349.175 779.675 362.02 747.336 374.553 714.877C376.082 710.916 377.977 709.388 382.137 709.622C387.619 709.929 393.141 709.877 398.628 709.619C402.044 709.458 403.68 710.821 404.885 713.913C415.515 741.215 426.274 768.467 436.998 795.732C440.044 803.476 443.121 811.207 446.139 818.962C446.602 820.149 447.599 821.278 446.621 823.289C438.797 823.289 430.684 823.307 422.572 823.278C420.183 823.269 419.752 821.263 419.101 819.581C417.119 814.457 415.188 809.313 413.215 804.185C412.428 802.139 411.67 800.025 408.442 800.045ZM382.933 759.328C380.702 765.48 378.471 771.632 376.059 778.285C385.635 778.285 394.195 778.285 403.489 778.285C399.033 765.857 394.777 753.986 390.092 740.918C387.43 747.757 385.32 753.18 382.933 759.328Z" fill="#570D11"/>
<path d="M766 709.917C780.652 709.889 794.805 709.982 808.953 709.757C813.079 709.692 814.672 711.034 814.429 715.19C814.166 719.67 814.165 724.19 814.441 728.668C814.667 732.318 813.095 733.25 809.771 733.212C797.119 733.067 784.465 733.079 771.812 733.069C765.166 733.064 765.092 733.156 765.098 739.704C765.101 744.532 765.287 749.364 765.137 754.187C765.03 757.651 766.419 758.863 769.849 758.818C781.002 758.673 792.159 758.861 803.311 758.691C807.287 758.63 809.157 759.572 808.586 764.072C808.065 768.172 808.22 772.391 808.426 776.541C808.611 780.269 807.114 781.478 803.48 781.424C792.828 781.268 782.171 781.372 771.516 781.387C765 781.396 764.975 781.407 764.966 788.134C764.952 797.957 764.898 807.78 765.026 817.602C765.079 821.682 763.84 823.776 759.288 823.444C754.65 823.105 749.954 823.127 745.313 823.428C740.905 823.714 739.554 822.027 739.584 817.687C739.745 794.88 739.649 772.07 739.645 749.262C739.644 737.774 739.764 726.285 739.588 714.8C739.531 711.078 740.885 709.759 744.524 709.848C751.513 710.019 758.508 709.909 766 709.917Z" fill="#570D11"/>
<path d="M907.93 747.87C902.03 757.964 896.344 767.758 890.613 777.528C889.06 780.175 888.265 782.911 888.301 786.048C888.424 796.71 888.19 807.379 888.422 818.037C888.514 822.239 886.984 823.643 882.918 823.427C878.099 823.172 873.242 823.131 868.429 823.434C864.135 823.704 862.973 821.849 863.024 817.883C863.162 807.221 862.894 796.554 863.052 785.893C863.114 781.707 861.939 778.157 859.884 774.58C848.188 754.218 836.631 733.775 825.047 713.349C824.656 712.658 824.479 711.845 824.248 711.215C825.329 709.354 826.974 709.778 828.395 709.744C831.392 709.672 834.393 709.741 837.392 709.738C852.162 709.724 852.153 709.727 859.122 722.82C863.895 731.788 868.678 740.752 873.508 749.689C874.279 751.117 874.846 752.754 876.936 753.975C880.57 747.645 884.231 741.378 887.786 735.052C891.783 727.936 895.684 720.767 899.63 713.622C900.511 712.025 901.231 710 903.365 709.971C911.632 709.857 919.901 709.925 929.709 709.925C922.086 723.217 915.106 735.389 907.93 747.87Z" fill="#570D11"/>
<path d="M717.325 786C717.315 797.154 717.207 807.809 717.35 818.461C717.397 822.039 716.288 823.618 712.506 823.447C707.19 823.207 701.852 823.26 696.529 823.39C693.262 823.47 691.65 822.453 691.657 818.872C691.717 783.915 691.696 748.957 691.635 714C691.63 711.011 692.829 709.788 695.781 709.834C701.107 709.918 706.449 710.085 711.757 709.764C716.26 709.492 717.431 711.339 717.402 715.585C717.246 738.889 717.326 762.195 717.325 786Z" fill="#570D11"/>
<path d="M693.716 342.54C686.521 397.838 667.487 448.175 635.266 493.165C603.358 537.719 562.92 572.523 513.407 596.478C511.104 597.592 509.144 597.575 506.805 596.423C442.179 564.622 393.229 516.741 360.01 452.902C342.728 419.689 332.09 384.316 326.586 347.271C321.496 313.016 321.549 278.59 321.724 244.117C321.747 239.513 324.648 238.671 327.895 237.699C349.737 231.169 371.533 224.482 393.434 218.157C430.517 207.446 467.621 196.81 504.967 187.035C508.63 186.076 512.002 186.103 515.692 187.071C571.862 201.816 627.604 218.052 683.167 234.919C683.485 235.016 683.791 235.155 684.11 235.25C698.283 239.484 698.279 239.484 698.296 254.408C698.317 272.567 698.654 290.74 697.206 308.86C696.319 319.961 694.96 331.025 693.716 342.54ZM611.499 269.121C601.835 269.119 592.167 269.282 582.509 269.035C578.479 268.932 576.641 270.53 575.249 274.195C554.574 328.665 533.771 383.087 512.952 437.502C512.535 438.59 512.624 440.308 510.814 440.391C509.641 439.919 509.548 438.815 509.236 437.919C500.263 412.131 490.169 386.766 480.439 361.263C469.402 332.336 458.388 303.4 447.388 274.459C446.286 271.562 445.244 269.081 441.33 268.949C422.685 268.319 404.041 268.004 385.402 268.89C378.789 269.204 378.133 270.354 380.73 276.681C390.59 300.708 400.552 324.693 410.521 348.675C433.911 404.939 457.353 461.182 480.663 517.479C482.006 520.724 483.737 521.987 487.259 522.182C503.082 523.058 518.888 522.319 534.701 522.131C537.949 522.092 539.354 520.528 540.484 517.757C562.103 464.727 583.767 411.717 605.472 358.723C616.892 330.839 628.436 303.007 639.851 275.121C641.929 270.043 641.36 269.223 635.993 269.146C628.163 269.033 620.33 269.118 611.499 269.121Z" fill="#9A5A5B"/>
<path d="M555 321C554.397 327.067 551.998 332.301 549.688 337.875C545.66 347.754 541.834 357.686 538.125 367.688C534.141 378.413 530.028 389.076 525.75 399.688C522.208 408.477 518.692 417.272 515.312 426.125C514.985 426.978 514.658 427.831 514.321 428.71C514.026 429.489 513.73 430.268 513.426 431.07C513.172 431.738 512.919 432.406 512.657 433.094C511.985 435.044 511.47 436.993 511 439C510.34 439 509.68 439 509 439C508.486 437.478 508.486 437.478 507.961 435.926C503.932 424.155 499.597 412.507 495.188 400.875C494.886 400.079 494.584 399.282 494.273 398.462C491.17 390.275 488.047 382.097 484.871 373.938C484.404 372.734 483.936 371.53 483.454 370.29C482.589 368.067 481.719 365.847 480.844 363.628C480.465 362.655 480.086 361.682 479.695 360.68C479.365 359.842 479.036 359.004 478.696 358.14C478 356 478 356 478 353C523.342 332.245 523.342 332.245 543.688 324.438C544.592 324.09 545.497 323.743 546.429 323.385C547.26 323.071 548.092 322.757 548.949 322.434C549.685 322.156 550.421 321.878 551.178 321.592C553 321 553 321 555 321Z" fill="#5D0E12"/>
<path d="M525.464 189.617C526.935 190.017 526.935 190.017 528.437 190.424C531.659 191.305 534.874 192.208 538.089 193.117C539.208 193.433 540.326 193.749 541.479 194.074C547.371 195.741 553.256 197.425 559.139 199.121C565.468 200.944 571.807 202.725 578.151 204.492C614.455 214.633 650.715 225.01 686.711 236.202C687.504 236.447 688.298 236.693 689.116 236.945C690.102 237.253 690.102 237.253 691.108 237.567C693.415 238.208 695.74 238.657 698.089 239.117C698.713 297.834 698.713 297.834 695.451 325.863C695.127 328.771 694.869 331.672 694.655 334.59C689.876 397.9 662.391 461.435 622.089 510.117C621.677 510.621 621.264 511.125 620.84 511.644C613.517 520.548 605.59 528.826 597.464 536.992C596.983 537.478 596.502 537.964 596.007 538.465C589.381 545.146 582.457 551.265 575.089 557.117C573.833 558.153 572.581 559.192 571.331 560.234C558.196 571.052 544.003 579.916 529.069 588.028C527.019 589.156 524.991 590.319 522.964 591.488C521.631 592.24 520.297 592.992 518.964 593.742C518.36 594.098 517.757 594.453 517.135 594.819C512.936 597.139 510.681 597.227 506.089 596.117C503.211 594.845 503.211 594.845 500.237 593.238C499.138 592.646 498.038 592.054 496.905 591.443C495.769 590.82 494.634 590.197 493.464 589.555C492.351 588.959 491.239 588.362 490.093 587.748C482.463 583.605 475.228 579.054 468.089 574.117C467.405 573.647 466.72 573.178 466.015 572.694C458.064 567.188 450.483 561.353 443.089 555.117C442.115 554.33 441.142 553.542 440.139 552.73C431.899 545.977 424.321 538.565 416.776 531.055C416.009 530.295 416.009 530.295 415.225 529.52C408.376 522.725 402.066 515.707 396.089 508.117C395.231 507.057 394.373 505.997 393.514 504.938C381.526 489.648 371.106 473.316 362.089 456.117C361.576 455.155 361.576 455.155 361.053 454.173C337.959 410.697 326.064 362.086 323.089 313.117C322.957 311.184 322.957 311.184 322.823 309.212C321.904 294.788 321.975 280.377 322.026 265.93C322.031 263.415 322.036 260.9 322.04 258.385C322.051 252.296 322.067 246.206 322.089 240.117C325.9 238.812 329.715 237.517 333.533 236.229C335.433 235.586 337.33 234.937 339.227 234.287C349.561 230.787 360.027 227.843 370.541 224.936C376.885 223.181 383.212 221.37 389.534 219.539C390.563 219.241 391.592 218.944 392.652 218.637C394.759 218.027 396.865 217.417 398.971 216.806C461.941 198.566 461.941 198.566 483.888 192.984C489.946 191.442 495.911 189.714 501.858 187.781C510.114 186.084 517.459 187.359 525.464 189.617ZM494.757 196.969C493.685 197.265 492.613 197.562 491.509 197.867C488.095 198.815 484.686 199.778 481.276 200.742C479.03 201.367 476.783 201.991 474.536 202.613C463.848 205.586 453.196 208.656 442.58 211.876C433.019 214.765 423.396 217.432 413.778 220.125C393.765 225.736 373.807 231.512 353.901 237.492C352.258 237.985 352.258 237.985 350.582 238.488C347.507 239.411 344.432 240.337 341.358 241.266C340.443 241.541 339.528 241.816 338.585 242.1C337.753 242.352 336.922 242.605 336.065 242.865C335.341 243.084 334.617 243.303 333.871 243.528C332.015 244.094 332.015 244.094 330.089 245.117C330.018 253.534 329.965 261.951 329.933 270.368C329.918 274.28 329.897 278.192 329.862 282.103C329.697 301.347 330.289 320.028 333.089 339.117C333.286 340.562 333.482 342.007 333.675 343.453C337.998 374.377 346.216 404.637 359.089 433.117C363.051 433.117 363.982 431.799 366.964 429.242C368.443 428.001 368.443 428.001 369.952 426.734C370.47 426.3 370.987 425.865 371.521 425.417C384.407 414.734 398.176 404.573 412.429 395.802C415.144 394.082 417.774 392.274 420.401 390.422C421.284 389.8 422.167 389.179 423.077 388.539C423.741 388.07 424.405 387.601 425.089 387.117C425.592 388.32 426.095 389.523 426.614 390.763C428.522 395.324 430.431 399.884 432.34 404.445C433.158 406.401 433.976 408.357 434.795 410.312C439.917 422.555 445.053 434.793 450.206 447.023C452.484 452.428 454.756 457.835 457.026 463.242C457.287 463.863 457.548 464.484 457.816 465.124C463.797 479.375 469.71 493.654 475.616 507.936C475.972 508.798 476.329 509.66 476.697 510.548C477.37 512.175 478.043 513.803 478.715 515.431C480.311 519.315 480.311 519.315 482.089 523.117C500.899 523.117 519.709 523.117 539.089 523.117C543.058 514.433 543.058 514.433 546.753 505.66C547.225 504.489 547.698 503.318 548.184 502.111C548.432 501.495 548.68 500.879 548.935 500.243C550.336 496.755 551.747 493.27 553.159 489.785C553.466 489.028 553.773 488.27 554.089 487.489C558.205 477.344 562.401 467.233 566.589 457.117C572.022 443.986 577.442 430.851 582.776 417.68C588.073 404.602 593.418 391.543 598.779 378.492C602.47 369.505 606.154 360.517 609.827 351.523C610.225 350.55 610.623 349.576 611.032 348.573C613.371 342.849 613.371 342.849 615.707 337.125C616.067 336.242 616.427 335.36 616.798 334.45C617.153 333.581 617.507 332.712 617.872 331.816C618.573 330.104 619.28 328.394 619.994 326.687C621.783 322.398 623.463 318.106 624.989 313.716C629.44 301.304 629.44 301.304 633.67 298.258C636.762 297.299 639.483 296.975 642.714 296.805C645.01 296.527 647.305 296.244 649.6 295.957C650.807 295.833 652.014 295.709 653.258 295.582C659.414 294.835 665.449 293.554 671.515 292.285C673.5 291.873 675.487 291.474 677.476 291.081C683.851 289.864 683.851 289.864 690.089 288.117C690.089 273.927 690.089 259.737 690.089 245.117C661.799 235.687 633.105 227.498 604.455 219.245C598.725 217.593 593 215.926 587.276 214.254C569.046 208.933 550.79 203.799 532.409 199.02C530.081 198.387 527.763 197.712 525.456 197.007C524.252 196.64 523.048 196.273 521.807 195.895C520.198 195.386 520.198 195.386 518.555 194.867C510.09 193.036 502.974 194.622 494.757 196.969Z" fill="#570D11"/>
<defs>
<linearGradient id="paint0_linear_3687_43680" x1="510.109" y1="158.948" x2="510.109" y2="626.67" gradientUnits="userSpaceOnUse">
<stop stop-color="#742F31"/>
<stop offset="1" stop-color="#570D11"/>
</linearGradient>
</defs>
</svg>
